<svg id="Layer_1" data-name="Layer 1" xmlns="http://www.w3.org/2000/svg" xmlns:xlink="http://www.w3.org/1999/xlink" viewBox="0 0 500.48 758.73"><defs><style>.cls-1,.cls-2{fill:none;stroke-miterlimit:10;stroke-width:16px;}.cls-1{stroke:#000;}.cls-2{stroke:url(#linear-gradient);}.cls-3{fill:url(#radial-gradient);}.cls-4{fill:url(#radial-gradient-2);}.cls-5{fill:url(#radial-gradient-3);}.cls-6{fill:url(#radial-gradient-4);}</style><linearGradient id="linear-gradient" x1="484.68" y1="139.31" x2="672.64" y2="247.83" gradientUnits="userSpaceOnUse"><stop offset="0" stop-color="#fff"/><stop offset="0.31" stop-color="#a7a7a7"/><stop offset="0.65" stop-color="#4e4e4e"/><stop offset="0.89" stop-color="#161616"/><stop offset="1"/></linearGradient><radialGradient id="radial-gradient" cx="102.51" cy="96.48" r="27.38" gradientUnits="userSpaceOnUse"><stop offset="0" stop-color="#fff"/><stop offset="0.41" stop-color="#fdfdfd"/><stop offset="0.55" stop-color="#f6f6f6"/><stop offset="0.66" stop-color="#ebebeb"/><stop offset="0.74" stop-color="#dadada"/><stop offset="0.81" stop-color="#c4c4c4"/><stop offset="0.88" stop-color="#a8a8a8"/><stop offset="0.93" stop-color="#888"/><stop offset="0.98" stop-color="#646464"/><stop offset="1" stop-color="#575757"/></radialGradient><radialGradient id="radial-gradient-2" cx="27.38" cy="96.48" r="27.38" xlink:href="#radial-gradient"/><radialGradient id="radial-gradient-3" cx="26.3" cy="91.63" r="5.84" gradientUnits="userSpaceOnUse"><stop offset="0" stop-color="#fff"/><stop offset="0" stop-color="#f6f6f6"/><stop offset="0" stop-color="#efefef"/><stop offset="0" stop-color="#ededed"/><stop offset="0.09" stop-color="#c6c6c6"/><stop offset="0.22" stop-color="#929292"/><stop offset="0.35" stop-color="#656565"/><stop offset="0.48" stop-color="#414141"/><stop offset="0.61" stop-color="#242424"/><stop offset="0.74" stop-color="#101010"/><stop offset="0.87" stop-color="#040404"/><stop offset="1"/></radialGradient><radialGradient id="radial-gradient-4" cx="102.51" cy="91.63" r="5.84" xlink:href="#radial-gradient-3"/></defs><title>theclip</title><path class="cls-1" d="M752.39,410.36c-40.64,6.57-106.18-83.88-173-50S648.14,521,730.87,603.22c99.89,99.26,219.87,209.9,262,163.57s-41.25-106.9-56.06-126.08S716.23,435.21,691.75,462.51a32.31,32.31,0,0,0-7.92,18.8c-2,42.68,70,93.07,77.83,98.43" transform="translate(-512.2 -26.93)"/><ellipse cx="911.23" cy="608.13" rx="37.96" ry="50.49" transform="translate(-663.94 846.25) rotate(-47.72)"/><ellipse cx="842.4" cy="689.79" rx="37.96" ry="50.49" transform="translate(-746.88 822.05) rotate(-47.72)"/><path d="M869,765.27l0.81-.45c0.53-.28,1.3-0.72,2.31-1.22l1.66-.83,1.88-1c1.33-.76,2.85-1.48,4.43-2.48l2.49-1.46c0.86-.5,1.69-1.1,2.58-1.66,1.8-1.08,3.53-2.44,5.38-3.74,0.9-.68,1.76-1.44,2.67-2.15,0.45-.37.91-0.72,1.35-1.1l1.29-1.19c1.78-1.54,3.39-3.28,5.05-5l2.31-2.71,0.58-.67,0.53-.71,1.06-1.41,1.06-1.4c0.34-.47.65-1,1-1.45,0.62-1,1.29-1.9,1.88-2.86,1.11-2,2.31-3.81,3.21-5.71,0.48-.93,1-1.82,1.41-2.72l1.22-2.62c0.85-1.66,1.43-3.27,2.06-4.67l0.86-2,0.67-1.71c0.39-1,.76-1.85,1-2.41l0.38-.85,0,0.93c0,0.6,0,1.49,0,2.62L920,714.52c0,0.68-.14,1.41-0.22,2.19A45.94,45.94,0,0,1,919,722l-0.67,3c-0.24,1-.63,2.06-1,3.14a55.79,55.79,0,0,1-2.61,6.63c-0.51,1.13-1.17,2.22-1.77,3.35-0.31.56-.61,1.13-0.94,1.69l-1.1,1.62L909.8,743l-0.56.82-0.63.77-2.55,3.08-2.83,2.83-0.71.7-0.76.64-1.52,1.26-1.51,1.24c-0.52.38-1.07,0.74-1.59,1.1-1.07.71-2.08,1.46-3.16,2.08a55.56,55.56,0,0,1-6.35,3.23c-1,.43-2,0.91-3,1.25l-2.9,1a46.41,46.41,0,0,1-5.17,1.32c-0.78.15-1.49,0.34-2.16,0.43l-1.84.23c-1.11.15-2,.21-2.6,0.27Z" transform="translate(-512.2 -26.93)"/><path d="M938.69,673l0.68-.33c0.45-.2,1.1-0.52,1.94-0.86s1.88-.77,3-1.31l1.76-.8,0.95-.41,1-.5c1.32-.68,2.78-1.32,4.2-2.19,0.71-.43,1.49-0.78,2.21-1.26s1.46-.95,2.2-1.42l0.56-.36,0.53-.41,1.08-.8,1.09-.81c0.35-.29.69-0.59,1-0.89,0.67-.61,1.41-1.16,2-1.83l1.93-2,1.77-2.11c0.61-.69,1.08-1.48,1.63-2.21,0.26-.37.54-0.73,0.79-1.11l0.7-1.16,0.7-1.15,0.35-.57,0.3-.59c0.41-.79.79-1.57,1.21-2.33s0.68-1.57,1-2.32c0.73-1.5,1.23-3,1.79-4.39l0.41-1,0.32-1,0.63-1.85c0.44-1.16.75-2.2,1-3.06s0.52-1.54.67-2l0.26-.71,0.14,0.74c0.07,0.48.21,1.2,0.31,2.11a24.49,24.49,0,0,1,.27,3.31l0,2v1.12l-0.1,1.16a35.34,35.34,0,0,1-.73,5.12c-0.2.9-.38,1.84-0.66,2.78s-0.63,1.88-1,2.85a24.48,24.48,0,0,1-1.26,2.87l-0.69,1.45c-0.26.47-.56,0.92-0.85,1.39l-0.87,1.39a9.62,9.62,0,0,1-1,1.35L970,661.59l-2.38,2.33a9.5,9.5,0,0,1-1.26,1.07l-1.3,1c-0.44.33-.86,0.67-1.3,1l-1.38.82a24.17,24.17,0,0,1-2.73,1.52c-0.93.42-1.84,0.85-2.74,1.23s-1.82.64-2.7,0.92a35.25,35.25,0,0,1-5,1.21l-1.15.21-1.12.12c-0.73.06-1.41,0.13-2.06,0.17a23.53,23.53,0,0,1-3.29,0c-0.91,0-1.63-.09-2.12-0.11Z" transform="translate(-512.2 -26.93)"/><path class="cls-2" d="M645,261.47c-23.23,13.91-6.76,73.2-57.25,87.64s-52.38-86.18-56.1-149.37c-4.5-76.29-5.32-164.79,39.86-164.81s37,55.55,40.07,68.49,2.62,163.49-23.83,163.35a28.31,28.31,0,0,1-13.88-3.68c-23.76-14.75-15.69-62-14.76-67.13" transform="translate(-512.2 -26.93)"/><circle class="cls-3" cx="102.51" cy="96.48" r="27.38"/><circle class="cls-4" cx="27.38" cy="96.48" r="27.38"/><circle cx="27.38" cy="96.71" r="10.58"/><path d="M512.2,92.21l0.5-.44c0.33-.27.81-0.71,1.44-1.19l1-.81c0.39-.29.84-0.56,1.31-0.87A32.75,32.75,0,0,1,519.78,87l1.94-1c0.68-.31,1.41-0.58,2.15-0.88a44.73,44.73,0,0,1,4.79-1.57c0.85-.22,1.73-0.39,2.61-0.57a23.22,23.22,0,0,1,2.71-.43,40.32,40.32,0,0,1,11.2,0,22.72,22.72,0,0,1,2.71.43c0.89,0.19,1.76.35,2.61,0.57a45,45,0,0,1,4.79,1.57c0.74,0.31,1.46.58,2.15,0.88l1.94,1a32.15,32.15,0,0,1,3.26,1.91c0.47,0.31.91,0.59,1.31,0.87L565,90.57c0.64,0.48,1.12.92,1.45,1.19l0.5,0.44-0.67-.08c-0.43-.07-1.07-0.13-1.84-0.28s-1.72-.29-2.8-0.46-2.25-.41-3.56-0.58l-2-.33L554,90.2c-1.45-.25-3-0.34-4.56-0.56s-3.19-.3-4.84-0.35-3.31-.11-5-0.15-3.33,0-5,.15-3.26.25-4.84,0.34-3.11.31-4.56,0.55l-2.14.28-2,.33c-1.31.17-2.47,0.4-3.54,0.57-0.54.08-1,.17-1.51,0.23l-1.3.24c-0.78.16-1.42,0.22-1.85,0.29Z" transform="translate(-512.2 -26.93)"/><path d="M595.89,92.21l0.5-.44c0.33-.27.81-0.71,1.44-1.19l1-.81c0.39-.29.84-0.56,1.31-0.87A32.75,32.75,0,0,1,603.46,87l1.94-1c0.68-.31,1.41-0.58,2.15-0.88a44.73,44.73,0,0,1,4.79-1.57c0.85-.22,1.73-0.39,2.61-0.57a23.22,23.22,0,0,1,2.71-.43,40.32,40.32,0,0,1,11.2,0,22.72,22.72,0,0,1,2.71.43c0.89,0.19,1.76.35,2.61,0.57A45,45,0,0,1,639,85.11c0.74,0.31,1.46.58,2.15,0.88l1.94,1a32.15,32.15,0,0,1,3.26,1.91c0.47,0.31.91,0.59,1.31,0.87l1.06,0.82c0.64,0.48,1.12.92,1.45,1.19l0.5,0.44L650,92.13c-0.43-.07-1.07-0.13-1.84-0.28s-1.72-.29-2.8-0.46-2.25-.41-3.56-0.58l-2-.33-2.14-.28c-1.45-.25-3-0.34-4.56-0.56s-3.19-.3-4.84-0.35-3.31-.11-5-0.15-3.33,0-5,.15-3.26.25-4.84,0.34-3.11.31-4.56,0.55l-2.14.28-2,.33c-1.31.17-2.47,0.4-3.54,0.57-0.54.08-1,.17-1.51,0.23l-1.3.24c-0.78.16-1.42,0.22-1.85,0.29Z" transform="translate(-512.2 -26.93)"/><circle cx="102.51" cy="96.48" r="10.58"/><ellipse class="cls-5" cx="26.3" cy="91.63" rx="7.06" ry="4.29"/><ellipse class="cls-6" cx="102.51" cy="91.63" rx="7.06" ry="4.29"/></svg>